<svg width="113" height="113" viewBox="0 0 113 113" fill="none" xmlns="http://www.w3.org/2000/svg">
<g filter="url(#filter0_d_12_3)">
<path d="M102.7 30.6297H76.8752C79.2815 29.5219 81.5162 28.0475 83.506 26.255C84.8859 24.9769 85.9973 23.4157 86.7706 21.6692C87.544 19.9226 87.9625 18.0285 88 16.1056C88.0595 13.9746 87.7004 11.8535 86.9447 9.87221C86.1891 7.89096 85.0527 6.09141 83.6055 4.58395C82.1582 3.07648 80.4305 1.89289 78.5284 1.10578C76.6263 0.318671 74.5899 -0.0553656 72.544 0.00661656C70.6979 0.045657 68.8794 0.481601 67.2026 1.28711C65.5259 2.09261 64.027 3.2503 62.8 4.68757C59.6972 8.335 57.7442 13.087 56.5 17.6422C55.2662 13.087 53.3132 8.34593 50.2 4.68757C48.973 3.2503 47.4741 2.09261 45.7973 1.28711C44.1206 0.481601 42.3021 0.045657 40.456 0.00661656C38.4101 -0.0553656 36.3737 0.318671 34.4716 1.10578C32.5694 1.89289 30.8418 3.07648 29.3945 4.58395C27.9473 6.09141 26.8109 7.89096 26.0553 9.87221C25.2996 11.8535 24.9405 13.9746 25 16.1056C25.0375 18.0285 25.456 19.9226 26.2293 21.6692C27.0027 23.4157 28.1141 24.9769 29.494 26.255C31.4838 28.0475 33.7185 29.5219 36.1247 30.6297H10.3C8.62914 30.6297 7.02671 31.321 5.84523 32.5517C4.66375 33.7823 4 35.4514 4 37.1918V54.6907C4 56.431 4.66375 58.1001 5.84523 59.3308C7.02671 60.5614 8.62914 61.2528 10.3 61.2528H12.4V98.4379C12.4 100.178 13.0637 101.847 14.2452 103.078C15.4267 104.309 17.0291 105 18.7 105H94.3C95.9709 105 97.5733 104.309 98.7548 103.078C99.9362 101.847 100.6 100.178 100.6 98.4379V61.2528H102.7C104.371 61.2528 105.973 60.5614 107.155 59.3308C108.336 58.1001 109 56.431 109 54.6907V37.1918C109 35.4514 108.336 33.7823 107.155 32.5517C105.973 31.321 104.371 30.6297 102.7 30.6297ZM65.95 7.58583C66.7979 6.5985 67.8324 5.80424 68.9888 5.25282C70.1452 4.7014 71.3984 4.40471 72.67 4.38134H72.9902C74.4365 4.38294 75.8679 4.68638 77.1997 5.27375C78.5315 5.86112 79.7368 6.72052 80.7445 7.80118C81.7521 8.88184 82.5417 10.1619 83.0665 11.5656C83.5913 12.9694 83.8407 14.4685 83.8 15.9744C83.7772 17.2988 83.4923 18.6041 82.9629 19.8085C82.4335 21.0129 81.6711 22.0905 80.7235 22.9739C74.3762 28.8251 63.3617 30.1977 58.6735 30.5149C58.999 25.6698 60.3115 14.2245 65.95 7.58583ZM29.2 15.9744C29.1593 14.4685 29.4087 12.9694 29.9335 11.5656C30.4583 10.1619 31.2479 8.88184 32.2555 7.80118C33.2632 6.72052 34.4685 5.86112 35.8003 5.27375C37.1321 4.68638 38.5635 4.38294 40.0097 4.38134H40.33C41.6016 4.40471 42.8548 4.7014 44.0112 5.25282C45.1676 5.80424 46.2021 6.5985 47.05 7.58583C52.6727 14.1971 53.9852 25.6698 54.2897 30.5531C49.6225 30.236 38.608 28.8634 32.2397 23.0122C31.2943 22.1211 30.5361 21.0357 30.013 19.8245C29.4899 18.6133 29.213 17.3024 29.2 15.9744ZM8.2 54.6907V37.1918C8.2 36.6116 8.42125 36.0553 8.81508 35.6451C9.2089 35.2349 9.74305 35.0044 10.3 35.0044H54.4V56.878H10.3C9.74305 56.878 9.2089 56.6476 8.81508 56.2374C8.42125 55.8272 8.2 55.2708 8.2 54.6907ZM16.6 98.4379V61.2528H54.4V100.625H18.7C18.143 100.625 17.6089 100.395 17.2151 99.9846C16.8212 99.5744 16.6 99.018 16.6 98.4379ZM96.4 98.4379C96.4 99.018 96.1787 99.5744 95.7849 99.9846C95.3911 100.395 94.857 100.625 94.3 100.625H58.6V61.2528H96.4V98.4379ZM104.8 54.6907C104.8 55.2708 104.579 55.8272 104.185 56.2374C103.791 56.6476 103.257 56.878 102.7 56.878H58.6V35.0044H102.7C103.257 35.0044 103.791 35.2349 104.185 35.6451C104.579 36.0553 104.8 36.6116 104.8 37.1918V54.6907Z" fill="#85B6FF"/>
</g>
<defs>
<filter id="filter0_d_12_3" x="0" y="0" width="113" height="113" filterUnits="userSpaceOnUse" color-interpolation-filters="sRGB">
<feFlood flood-opacity="0" result="BackgroundImageFix"/>
<feColorMatrix in="SourceAlpha" type="matrix" values="0 0 0 0 0 0 0 0 0 0 0 0 0 0 0 0 0 0 127 0" result="hardAlpha"/>
<feOffset dy="4"/>
<feGaussianBlur stdDeviation="2"/>
<feComposite in2="hardAlpha" operator="out"/>
<feColorMatrix type="matrix" values="0 0 0 0 0 0 0 0 0 0 0 0 0 0 0 0 0 0 0.25 0"/>
<feBlend mode="normal" in2="BackgroundImageFix" result="effect1_dropShadow_12_3"/>
<feBlend mode="normal" in="SourceGraphic" in2="effect1_dropShadow_12_3" result="shape"/>
</filter>
</defs>
</svg>
