<svg width="105" height="105" viewBox="0 0 105 105" fill="none" xmlns="http://www.w3.org/2000/svg">
<path d="M67.5938 72.275L54.425 59.1063C53.9438 58.625 53.375 58.5375 53.0688 58.5375C52.7625 58.5375 52.1938 58.625 51.7125 59.1063L38.5 72.3188C37.0125 73.8063 34.6938 76.2125 26.95 76.2125L43.1813 92.4C45.6422 94.8579 48.9781 96.2385 52.4563 96.2385C55.9344 96.2385 59.2703 94.8579 61.7313 92.4L78.0063 76.1688C74.025 76.1688 70.7 75.3813 67.5938 72.275ZM38.5 32.6813L51.7125 45.8938C52.0625 46.2438 52.5875 46.4625 53.0688 46.4625C53.55 46.4625 54.075 46.2438 54.425 45.8938L67.5063 32.8125C70.6125 29.575 74.1563 28.8313 78.1375 28.8313L61.8625 12.6C59.4016 10.1421 56.0656 8.76155 52.5875 8.76155C49.1094 8.76155 45.7735 10.1421 43.3125 12.6L27.0813 28.7875C34.7813 28.7875 37.1438 31.325 38.5 32.6813Z" fill="#4ECB71"/>
<path d="M92.3563 43.0938L82.5125 33.2063H77C74.6375 33.2063 72.275 34.1688 70.6562 35.875L57.5312 49C56.3062 50.225 54.6875 50.8375 53.0687 50.8375C51.4019 50.814 49.8064 50.1571 48.6062 49L35.3937 35.7438C33.7312 34.0813 31.4562 33.1188 29.05 33.1188H22.6187L12.6 43.1813C10.1421 45.6422 8.76154 48.9781 8.76154 52.4562C8.76154 55.9344 10.1421 59.2703 12.6 61.7312L22.6187 71.7937H29.0937C31.4562 71.7937 33.7312 70.8312 35.4375 69.1687L48.65 55.9562C49.875 54.7312 51.4937 54.1187 53.1125 54.1187C54.7312 54.1187 56.35 54.7312 57.575 55.9562L70.7438 69.125C72.4063 70.7875 74.6813 71.75 77.0875 71.75H82.6L92.4438 61.8625C94.912 59.3573 96.2882 55.9769 96.2719 52.4601C96.2555 48.9432 94.8477 45.5759 92.3563 43.0938Z" fill="#4ECB71"/>
</svg>
